# xmcd
#
# Track frame offsets: 
#        150
#        9718
#        22065
#        35118
#        53053
#        69898
#        81215
#        94955
#        105018
#        116840
#        130203
#        137323
#        145118
#        153100
#
# Disc length: 2388 seconds
#
# Revision: 3
# Processed by: cddbd v1.5.2PL0 Copyright (c) Steve Scherf et al.
# Submitted via: ExactAudioCopyFreeDBPlugin 1.0
#
DISCID=b009520e
DTITLE=Green Day - Dookie [Reprise Records 9362-45529-2]
DYEAR=1994
DGENRE=Punk Rock
TTITLE0=Burnout
TTITLE1=Having A Blast
TTITLE2=Chump
TTITLE3=Longview
TTITLE4=Welcome To Paradise
TTITLE5=Pulling Teeth
TTITLE6=Basket Case
TTITLE7=She
TTITLE8=Sassafras Roots
TTITLE9=When I Come Around
TTITLE10=Coming Clean
TTITLE11=Emenius Sleepus
TTITLE12=In The End
TTITLE13=F.O.D. [+Hidden Track "All By Myself"]
EXTD=
EXTT0=
EXTT1=
EXTT2=
EXTT3=
EXTT4=
EXTT5=
EXTT6=
EXTT7=
EXTT8=
EXTT9=
EXTT10=
EXTT11=
EXTT12=
EXTT13=
PLAYORDER=
